<svg xmlns="http://www.w3.org/2000/svg" xmlns:xlink="http://www.w3.org/1999/xlink" width="720" viewBox="0 0 540 540" height="720" preserveAspectRatio="xMidYMid meet" version="1.0">
  <g transform="matrix(1, 0, 0, 1, 153, 25)">
    <g clip-path="url(#1631f5bce0)">
      <g fill="#1f521f" fill-opacity="1">
        <g transform="translate(1.029851, 339.468133)">
          <g><path d="M 185.640625 -146.109375 C 185.640625 -152.535156 184.914062 -159.363281 183.46875 -166.59375 C 182.019531 -173.820312 179.6875 -180.410156 176.46875 -186.359375 C 173.257812 -192.304688 169.003906 -197.289062 163.703125 -201.3125 C 158.398438 -205.332031 151.890625 -207.34375 144.171875 -207.34375 C 132.273438 -207.34375 122.226562 -202.597656 114.03125 -193.109375 C 105.832031 -183.628906 99.160156 -172.378906 94.015625 -159.359375 C 88.878906 -146.335938 85.1875 -132.753906 82.9375 -118.609375 C 80.6875 -104.472656 79.5625 -92.90625 79.5625 -83.90625 C 79.5625 -78.4375 79.960938 -72.488281 80.765625 -66.0625 C 81.566406 -59.632812 83.171875 -53.523438 85.578125 -47.734375 C 87.992188 -41.953125 91.289062 -37.128906 95.46875 -33.265625 C 99.644531 -29.410156 105.269531 -27.484375 112.34375 -27.484375 C 125.207031 -27.484375 136.300781 -31.742188 145.625 -40.265625 C 154.945312 -48.785156 162.578125 -59.148438 168.515625 -71.359375 C 174.460938 -83.578125 178.800781 -96.515625 181.53125 -110.171875 C 184.269531 -123.835938 185.640625 -135.816406 185.640625 -146.109375 Z M 194.796875 0 C 191.585938 17.039062 186.925781 31.503906 180.8125 43.390625 C 174.707031 55.285156 166.910156 65.007812 157.421875 72.5625 C 147.941406 80.125 136.613281 85.671875 123.4375 89.203125 C 110.257812 92.742188 94.988281 94.515625 77.625 94.515625 C 67.34375 94.515625 57.296875 93.789062 47.484375 92.34375 C 37.679688 90.894531 27.640625 89.046875 17.359375 86.796875 L 23.625 54 C 31.988281 58.1875 40.75 61.40625 49.90625 63.65625 C 59.070312 65.90625 68.3125 67.03125 77.625 67.03125 C 96.914062 67.03125 111.945312 64.457031 122.71875 59.3125 C 133.488281 54.164062 141.765625 46.929688 147.546875 37.609375 C 153.335938 28.285156 157.515625 17.113281 160.078125 4.09375 C 162.648438 -8.925781 165.382812 -23.472656 168.28125 -39.546875 L 167.3125 -40.5 C 159.28125 -27.644531 149.71875 -17.679688 138.625 -10.609375 C 127.539062 -3.535156 114.117188 0 98.359375 0 C 87.753906 0 78.832031 -2.488281 71.59375 -7.46875 C 64.363281 -12.457031 58.578125 -18.890625 54.234375 -26.765625 C 49.898438 -34.640625 46.769531 -43.316406 44.84375 -52.796875 C 42.914062 -62.285156 41.953125 -71.367188 41.953125 -80.046875 C 41.953125 -89.691406 42.753906 -100.21875 44.359375 -111.625 C 45.960938 -123.039062 48.453125 -134.453125 51.828125 -145.859375 C 55.203125 -157.273438 59.539062 -168.363281 64.84375 -179.125 C 70.15625 -189.894531 76.503906 -199.378906 83.890625 -207.578125 C 91.285156 -215.773438 99.804688 -222.363281 109.453125 -227.34375 C 119.097656 -232.332031 129.867188 -234.828125 141.765625 -234.828125 C 154.617188 -234.828125 166.1875 -230.96875 176.46875 -223.25 C 186.757812 -215.539062 193.835938 -205.578125 197.703125 -193.359375 L 198.65625 -193.359375 L 205.40625 -229.515625 L 239.640625 -229.515625 Z M 194.796875 0 "/></g>
        </g>
      </g>
    </g>
  </g>
  <defs>
    <clipPath id="1631f5bce0">
      <rect x="0" width="243" y="0" height="485"/>
    </clipPath>
  </defs>
</svg>
